<svg width="153" height="102" viewBox="0 0 153 102" fill="none" xmlns="http://www.w3.org/2000/svg">
<path d="M7.01367 99L1.25781 99L1.25781 89.0059L7.01367 89.0059L7.01367 90.7422L3.37695 90.7422L3.37695 92.9365L6.76074 92.9365L6.76074 94.6729L3.37695 94.6729L3.37695 97.25L7.01367 97.25L7.01367 99ZM17.9717 99L15.2783 99L10.9307 91.4395L10.8691 91.4395C10.9557 92.7747 10.999 93.7272 10.999 94.2969L10.999 99L9.10547 99L9.10547 89.0059L11.7783 89.0059L16.1191 96.4912L16.167 96.4912C16.0986 95.1924 16.0645 94.2741 16.0645 93.7363L16.0645 89.0059L17.9717 89.0059L17.9717 99ZM24.2881 93.3877L28.2529 93.3877L28.2529 98.5693C27.6103 98.779 27.0042 98.9248 26.4346 99.0068C25.8695 99.0934 25.2907 99.1367 24.6982 99.1367C23.1898 99.1367 22.0368 98.6947 21.2393 97.8106C20.4463 96.9219 20.0498 95.6481 20.0498 93.9893C20.0498 92.376 20.5101 91.1182 21.4307 90.2158C22.3558 89.3135 23.6364 88.8623 25.2725 88.8623C26.2979 88.8623 27.2868 89.0674 28.2393 89.4775L27.5352 91.1729C26.806 90.8083 26.0472 90.626 25.2588 90.626C24.3428 90.626 23.609 90.9336 23.0576 91.5488C22.5062 92.1641 22.2305 92.9912 22.2305 94.0303C22.2305 95.1149 22.4515 95.9443 22.8936 96.5186C23.3402 97.0882 23.9873 97.3731 24.835 97.3731C25.277 97.3731 25.7259 97.3275 26.1816 97.2363L26.1816 95.1514L24.2881 95.1514L24.2881 93.3877ZM30.6387 99L30.6387 89.0059L32.7578 89.0059L32.7578 99L30.6387 99ZM44.1396 99L41.4463 99L37.0986 91.4395L37.0371 91.4395C37.1237 92.7747 37.167 93.7272 37.167 94.2969L37.167 99L35.2734 99L35.2734 89.0059L37.9463 89.0059L42.2871 96.4912L42.335 96.4912C42.2666 95.1924 42.2324 94.2741 42.2324 93.7363L42.2324 89.0059L44.1396 89.0059L44.1396 99ZM52.418 99L46.6621 99L46.6621 89.0059L52.418 89.0059L52.418 90.7422L48.7812 90.7422L48.7812 92.9365L52.165 92.9365L52.165 94.6729L48.7812 94.6729L48.7812 97.25L52.418 97.25L52.418 99ZM60.2656 99L54.5098 99L54.5098 89.0059L60.2656 89.0059L60.2656 90.7422L56.6289 90.7422L56.6289 92.9365L60.0127 92.9365L60.0127 94.6729L56.6289 94.6729L56.6289 97.25L60.2656 97.25L60.2656 99ZM64.4766 93.4424L65.1602 93.4424C65.8301 93.4424 66.3245 93.3307 66.6436 93.1074C66.9626 92.8841 67.1221 92.5332 67.1221 92.0547C67.1221 91.5807 66.958 91.2435 66.6299 91.043C66.3063 90.8425 65.8027 90.7422 65.1191 90.7422L64.4766 90.7422L64.4766 93.4424ZM64.4766 95.1651L64.4766 99L62.3574 99L62.3574 89.0059L65.2695 89.0059C66.6276 89.0059 67.6325 89.2542 68.2842 89.751C68.9359 90.2432 69.2617 90.9929 69.2617 92C69.2617 92.5879 69.0999 93.112 68.7764 93.5723C68.4528 94.028 67.9948 94.3858 67.4023 94.6455C68.9062 96.8923 69.8861 98.3438 70.3418 99L67.9902 99L65.6045 95.1651L64.4766 95.1651Z" fill="#EDFCFF"/>
<path d="M16.7998 1.97784C12.4598 1.97784 10.2898 6.16384 10.2898 14.5358L10.2898 17.8538C10.2898 21.8298 10.8638 24.9518 12.0118 27.2198C13.1598 29.4598 14.8538 30.5798 17.0938 30.5798C20.1738 30.5798 23.0018 27.5838 25.5778 21.5918H26.3338L26.0398 30.9578H25.5778C25.4098 30.6498 25.2558 30.4398 25.1158 30.3278C24.9758 30.1878 24.7658 30.1178 24.4858 30.1178C24.2338 30.1178 23.2258 30.3418 21.4618 30.7898C19.6978 31.2098 17.9058 31.4198 16.0858 31.4198C11.5218 31.4198 7.97981 30.1878 5.45981 27.7238C2.96781 25.2598 1.72181 21.5638 1.72182 16.6358C1.72182 11.6798 3.02382 7.85784 5.62782 5.16984C8.25982 2.48184 11.7878 1.13784 16.2118 1.13784C17.9198 1.13784 19.5858 1.36184 21.2098 1.80984C22.8618 2.22984 23.8278 2.43984 24.1078 2.43984C24.3878 2.43984 24.5978 2.38384 24.7378 2.27184C24.8778 2.13184 25.0318 1.90784 25.1998 1.59984L25.6618 1.59984L25.9978 10.7138H25.2418C23.9818 7.88584 22.6798 5.72984 21.3358 4.24584C20.0198 2.73384 18.5078 1.97784 16.7998 1.97784Z" fill="#FFF7F1"/>
<path d="M43.4459 12.1838C42.4099 12.1838 41.4999 12.8558 40.7159 14.1998C39.9319 15.5438 39.5399 17.1398 39.5399 18.9878L39.5399 30.2438H42.5219V30.9998L29.4179 30.9998V30.2438H31.7279L31.7279 11.7638L29.4179 11.7638V11.0078L39.5399 11.0078V15.0398C39.9039 13.6118 40.6039 12.5198 41.6399 11.7638C42.6759 10.9798 43.8519 10.5878 45.1679 10.5878C46.4839 10.5878 47.5479 10.9658 48.3599 11.7218C49.1999 12.4498 49.6199 13.4998 49.6199 14.8718C49.6199 16.2158 49.3119 17.2518 48.6959 17.9798C48.0799 18.7078 47.1279 19.0718 45.8399 19.0718C44.5799 19.0718 43.6419 18.6518 43.0259 17.8118C42.4379 16.9718 42.3679 15.8098 42.8159 14.3258H44.3279C45.0279 12.8978 44.7339 12.1838 43.4459 12.1838Z" fill="#FFF7F1"/>
<path d="M59.6775 21.1298H60.8955V17.8958C60.8955 15.2358 60.7416 13.4578 60.4336 12.5618C60.1536 11.6378 59.5936 11.1758 58.7536 11.1758C58.2495 11.1758 57.7876 11.3158 57.3675 11.5958C56.9756 11.8478 56.7796 12.2118 56.7796 12.6878C56.7796 13.1358 56.8636 13.5978 57.0316 14.0738H58.0816C58.3055 14.6618 58.4175 15.3758 58.4175 16.2158C58.4175 17.0278 58.0676 17.7418 57.3675 18.3578C56.6675 18.9458 55.7855 19.2398 54.7215 19.2398C52.3135 19.2398 51.1096 18.0778 51.1096 15.7538C51.1096 12.3098 54.0355 10.5878 59.8876 10.5878C63.2196 10.5878 65.5155 11.1618 66.7756 12.3098C68.0636 13.4298 68.7076 15.5018 68.7076 18.5258V27.0518C68.7076 28.5078 69.1135 29.2358 69.9255 29.2358C70.8775 29.2358 71.4376 27.7938 71.6056 24.9098L72.2355 24.9519C72.1236 27.4159 71.6615 29.1098 70.8495 30.0338C70.0375 30.9578 68.7076 31.4198 66.8596 31.4198C63.4995 31.4198 61.5676 30.3838 61.0635 28.3118C60.6995 29.3758 60.1535 30.1598 59.4255 30.6638C58.6975 31.1678 57.6335 31.4198 56.2335 31.4198C52.0895 31.4198 50.0175 29.7258 50.0175 26.3378C50.0175 24.3498 50.8015 22.9918 52.3695 22.2638C53.9655 21.5078 56.4015 21.1298 59.6775 21.1298ZM57.9975 26.2958C57.9975 27.7518 58.0675 28.6898 58.2075 29.1098C58.3755 29.5298 58.6696 29.7398 59.0896 29.7398C59.5375 29.7398 59.9435 29.3898 60.3075 28.6898C60.6995 27.9618 60.8955 26.9678 60.8955 25.7078V21.8018H60.6016C58.8656 21.8018 57.9975 23.0758 57.9975 25.6238V26.2958Z" fill="#FFF7F1"/>
<path d="M78.8223 8.10985C77.3383 8.10985 76.2743 7.73185 75.6303 6.97585C75.0143 6.21985 74.7063 5.28185 74.7063 4.16185C74.7063 3.04185 75.0423 2.11785 75.7143 1.38985C76.4143 0.661851 77.4643 0.297851 78.8643 0.297852C80.2643 0.297852 81.3283 0.633852 82.0563 1.30585C82.7843 1.94985 83.1483 2.88785 83.1483 4.11985C83.1483 5.32385 82.7983 6.28985 82.0983 7.01785C81.3983 7.74585 80.3063 8.10985 78.8223 8.10985ZM72.4803 11.0079L82.7703 11.0079V30.2439H85.1223V30.9999L72.6483 30.9999V30.2439H74.9583L74.9583 11.7638H72.4803V11.0079Z" fill="#FFF7F1"/>
<path d="M102.82 8.82386L103.996 8.10986C104.164 7.24186 103.828 6.80785 102.988 6.80785C101.784 6.80785 101.182 7.73185 101.182 9.57985C101.182 10.3079 101.28 11.1479 101.476 12.0999C103.604 13.5279 104.668 15.3619 104.668 17.6019C104.668 19.8139 103.898 21.5359 102.358 22.7679C100.818 23.9999 98.7324 24.6159 96.1004 24.6159C95.0084 24.6159 93.8744 24.5039 92.6984 24.2799C91.4664 25.0639 90.8504 25.6519 90.8504 26.0439C90.8504 26.4359 91.7464 26.6319 93.5384 26.6319H97.8224C104.178 26.6319 107.356 28.9139 107.356 33.4779C107.356 35.9419 106.39 37.8879 104.458 39.3159C102.554 40.7719 99.5724 41.4999 95.5124 41.4999C88.5964 41.4999 85.1384 40.0019 85.1384 37.0059C85.1384 35.3819 86.2164 34.2619 88.3724 33.6459L90.8924 34.7799C90.6684 35.5919 90.5564 36.3619 90.5564 37.0899C90.5564 39.4979 92.3484 40.7019 95.9324 40.7019C98.1164 40.7019 99.7964 40.2959 100.972 39.4839C102.148 38.6719 102.736 37.6639 102.736 36.4599C102.736 35.2559 102.372 34.4439 101.644 34.0239C100.944 33.6319 99.5304 33.4359 97.4024 33.4359H93.3284C91.0604 33.4359 89.4364 33.0579 88.4564 32.3019C87.4764 31.5459 86.9864 30.6219 86.9864 29.5299C86.9864 28.4099 87.3364 27.4859 88.0364 26.7579C88.7364 26.0019 89.9824 25.0779 91.7744 23.9859C88.5264 23.0619 86.9024 20.9339 86.9024 17.6019C86.9024 15.5019 87.6584 13.8079 89.1704 12.5199C90.6824 11.2319 92.9504 10.5879 95.9744 10.5879C97.7944 10.5879 99.3484 10.9379 100.636 11.6379C100.468 10.8819 100.384 10.1959 100.384 9.57985C100.384 8.01185 100.804 6.87785 101.644 6.17786C102.484 5.47785 103.422 5.12785 104.458 5.12785C105.494 5.12785 106.32 5.40785 106.936 5.96786C107.58 6.49986 107.902 7.24186 107.902 8.19386C107.902 9.14586 107.65 9.85986 107.146 10.3359C106.642 10.7839 106.026 11.0079 105.298 11.0079C104.598 11.0079 104.01 10.8259 103.534 10.4619C103.086 10.0699 102.848 9.52386 102.82 8.82386ZM93.9164 16.6779V18.9459C93.9164 20.8219 94.0704 22.0959 94.3784 22.7679C94.7144 23.4399 95.2044 23.7759 95.8484 23.7759C96.5204 23.7759 96.9964 23.4539 97.2764 22.8099C97.5844 22.1379 97.7384 20.7799 97.7384 18.7359V16.6779C97.7384 14.4939 97.5984 13.0659 97.3184 12.3939C97.0384 11.6939 96.5624 11.3439 95.8904 11.3439C95.2464 11.3439 94.7564 11.7079 94.4204 12.4359C94.0844 13.1359 93.9164 14.5499 93.9164 16.6779Z" fill="#FFF7F1"/>
<path d="M23.0158 48.5998L34.2298 48.5998V49.3978H31.9198L31.9198 77.2018H34.2298V77.9998L21.4198 77.9998V77.2018H23.7298L23.7298 50.9518H23.5618L17.2618 77.9998H12.0118L4.61981 50.8258H4.45181L4.45181 77.2018H6.76181L6.76181 77.9998H1.0498L1.0498 77.2018H3.35981L3.35981 49.3978H1.04981L1.04981 48.5998L12.3898 48.5998L17.9758 70.2298L23.0158 48.5998Z" fill="#FFF7F1"/>
<path d="M46.7392 78.4198C43.1272 78.4198 40.4112 77.4958 38.5912 75.6478C36.7992 73.7718 35.9032 71.1818 35.9032 67.8778C35.9032 64.5458 36.9112 61.9978 38.9272 60.2338C40.9712 58.4698 43.5612 57.5878 46.6972 57.5878C53.0532 57.5878 56.1052 60.7799 55.8532 67.1638L44.0092 67.1638V68.8018C44.0092 71.5458 44.3592 73.6178 45.0592 75.0178C45.7592 76.4178 46.9772 77.1178 48.7132 77.1178C51.9612 77.1178 54.0892 75.3818 55.0972 71.9098L55.8532 72.0359C55.3212 74.0518 54.3552 75.6198 52.9552 76.7398C51.5832 77.8598 49.5112 78.4198 46.7392 78.4198ZM44.0512 66.3238H48.3772V64.2658C48.3772 61.9978 48.2372 60.4578 47.9572 59.6458C47.7052 58.8058 47.1732 58.3858 46.3612 58.3858C45.5772 58.3858 44.9892 58.8338 44.5972 59.7298C44.2332 60.5978 44.0512 62.1098 44.0512 64.2658L44.0512 66.3238Z" fill="#FFF7F1"/>
<path d="M57.1815 46.4998H67.4715V77.2439H69.8235V77.9998H57.3495V77.2439H59.6595L59.6595 47.2558L57.1815 47.2558L57.1815 46.4998Z" fill="#FFF7F1"/>
<path d="M69.6033 58.7638V58.0079H82.1613V58.7639H79.5153L84.5553 72.7079L89.0913 58.7639H86.2773V58.0079H91.9473V58.7639H90.0993L83.8833 77.9999H79.0953L71.3253 58.7638H69.6033Z" fill="#FFF7F1"/>
<path d="M98.5508 55.1099C97.0668 55.1099 96.0028 54.7319 95.3588 53.9759C94.7428 53.2199 94.4348 52.2819 94.4348 51.1619C94.4348 50.0419 94.7708 49.1179 95.4428 48.3899C96.1428 47.6619 97.1928 47.2979 98.5928 47.2979C99.9928 47.2979 101.057 47.6339 101.785 48.3059C102.513 48.9499 102.877 49.8879 102.877 51.1199C102.877 52.3239 102.527 53.2899 101.827 54.0179C101.127 54.7459 100.035 55.1099 98.5508 55.1099ZM92.2088 58.0079H102.499V77.2439H104.851V77.9999H92.3768V77.2439L94.6868 77.2439V58.7639L92.2088 58.7639V58.0079Z" fill="#FFF7F1"/>
<path d="M105.539 46.4999H115.829V77.2439H118.181V77.9999H105.707V77.2439H108.017L108.017 47.2559H105.539V46.4999Z" fill="#FFF7F1"/>
<path d="M118.828 46.4999L129.118 46.4999V77.2439H131.47V77.9999L118.996 77.9999V77.2439H121.306L121.306 47.2559H118.828V46.4999Z" fill="#FFF7F1"/>
<path d="M143.331 78.4199C139.719 78.4199 137.003 77.4959 135.183 75.6479C133.391 73.7719 132.495 71.1819 132.495 67.8779C132.495 64.5459 133.503 61.9979 135.519 60.2339C137.563 58.4699 140.153 57.5879 143.289 57.5879C149.645 57.5879 152.697 60.7799 152.445 67.1639H140.601V68.8019C140.601 71.5459 140.951 73.6179 141.651 75.0179C142.351 76.4179 143.569 77.1179 145.305 77.1179C148.553 77.1179 150.681 75.3819 151.689 71.9099L152.445 72.0359C151.913 74.0519 150.947 75.6199 149.547 76.7399C148.175 77.8599 146.103 78.4199 143.331 78.4199ZM140.643 66.3239H144.969V64.2659C144.969 61.9979 144.829 60.4579 144.549 59.6459C144.297 58.8059 143.765 58.3859 142.953 58.3859C142.169 58.3859 141.581 58.8339 141.189 59.7299C140.825 60.5979 140.643 62.1099 140.643 64.2659V66.3239Z" fill="#FFF7F1"/>
</svg>
